<svg width="62" height="32" viewBox="0 0 62 32" fill="none" xmlns="http://www.w3.org/2000/svg">
<path fill-rule="evenodd" clip-rule="evenodd" d="M27.6833 8.45942C27.0685 9.05095 27.0685 10.0649 27.6833 10.6771C28.2981 11.2897 29.3157 11.2897 29.9305 10.6771C30.545 10.0649 30.545 9.05095 29.9305 8.45942C29.3157 7.84686 28.2981 7.84686 27.6833 8.45942ZM40.0355 12.6041L38.5939 12.8364C35.8439 13.4607 34.0573 14.3553 34.0573 17.3627V23.3974L36.559 23.9042V17.7396C36.559 16.3342 37.3553 15.6994 38.5939 15.4647L40.0355 15.2016V12.6041ZM20.9949 23.4221L23.4967 23.9289V17.1067C23.4967 13.8327 20.9527 12.6499 19.193 12.6499C18.006 12.6499 17.0734 12.9455 16.2252 13.7693C15.3562 12.9455 14.3175 12.6289 13.4693 12.6289C12.2611 12.6289 11.2009 13.1567 10.5014 14.0018V12.8611L8 13.3469V23.4221L10.5014 23.9289V17.0009C10.5014 15.9026 11.3071 15.1212 12.5156 15.1212C13.7027 15.1212 14.5083 15.9026 14.5083 17.0009V23.4221L17.0097 23.9289V17.0009C17.0097 15.9026 17.8151 15.1212 19.0025 15.1212C20.1896 15.1212 20.9949 15.9026 20.9949 17.0009V23.4221ZM53.3333 18.304C53.3333 21.4453 50.7692 24 47.6375 24C44.4847 24 41.9205 21.4453 41.9205 18.304C41.9205 15.1837 44.4847 12.6289 47.6375 12.6289C50.7692 12.6289 53.3333 15.1837 53.3333 18.304ZM47.6375 21.6335C45.8089 21.6335 44.3164 20.1469 44.3164 18.304C44.3164 16.482 45.8089 15.016 47.6375 15.016C49.466 15.016 50.9371 16.482 50.9371 18.304C50.9371 20.1469 49.466 21.6335 47.6375 21.6335ZM30.0363 24L27.5349 23.4221V13.2751L30.0363 12.7683V24Z" fill="black"/>
</svg>
