<svg width="104" height="32" viewBox="0 0 104 32" fill="none" xmlns="http://www.w3.org/2000/svg">
<g clip-path="url(#clip0_2003_1531)">
<path d="M15.5593 8C16.3095 8 17.002 8.05674 17.6367 8.22695C18.2715 8.34043 18.7908 8.56738 19.2525 8.85106C19.7141 9.13475 20.0603 9.53191 20.2911 10.0426C20.522 10.5532 20.6374 11.1773 20.6374 11.8582C20.6374 12.6525 20.4643 13.3333 20.0603 13.844C19.7141 14.3546 19.137 14.8085 18.4446 15.1489C19.4256 15.4326 20.1757 15.9433 20.6374 16.6241C21.099 17.305 21.3875 18.156 21.3875 19.1206C21.3875 19.9149 21.2144 20.5957 20.9259 21.1631C20.6374 21.7305 20.1757 22.2411 19.6564 22.5816C19.137 22.922 18.5023 23.2057 17.8098 23.3759C17.1174 23.5461 16.4249 23.6596 15.7325 23.6596H8V8H15.5593ZM15.0977 14.3546C15.7325 14.3546 16.2518 14.1844 16.6557 13.9007C17.0597 13.617 17.2328 13.1064 17.2328 12.4823C17.2328 12.1418 17.1751 11.8014 17.0597 11.5745C16.9443 11.3475 16.7711 11.1773 16.5403 11.0071C16.3095 10.8936 16.0787 10.7801 15.7902 10.7234C15.5016 10.6667 15.2131 10.6667 14.8669 10.6667H11.52V14.3546H15.0977ZM15.2708 21.0496C15.617 21.0496 15.9633 20.9929 16.2518 20.9362C16.5403 20.8794 16.8289 20.766 17.0597 20.5957C17.2905 20.4255 17.4636 20.2553 17.6367 19.9716C17.7521 19.6879 17.8675 19.3475 17.8675 18.9504C17.8675 18.156 17.6367 17.5887 17.1751 17.1915C16.7134 16.8511 16.0787 16.6809 15.3285 16.6809H11.52V21.0496H15.2708ZM26.4079 20.9929C26.8695 21.4468 27.562 21.6738 28.4852 21.6738C29.12 21.6738 29.697 21.5035 30.1587 21.2199C30.6203 20.8794 30.9089 20.539 31.0243 20.1986H33.8518C33.3902 21.5603 32.6977 22.5248 31.7744 23.1489C30.8511 23.7163 29.7548 24.0567 28.4275 24.0567C27.5043 24.0567 26.6964 23.8865 25.9462 23.6028C25.1961 23.3191 24.619 22.922 24.0997 22.3546C23.5803 21.844 23.1764 21.2199 22.9456 20.4823C22.657 19.7447 22.5416 18.9504 22.5416 18.0426C22.5416 17.1915 22.657 16.3972 22.9456 15.6596C23.2341 14.922 23.638 14.2979 24.1574 13.7305C24.6767 13.2199 25.3115 12.766 26.0039 12.4823C26.7541 12.1986 27.5043 12.0284 28.4275 12.0284C29.4085 12.0284 30.2741 12.1986 31.0243 12.5957C31.7744 12.9929 32.3515 13.4468 32.8131 14.1277C33.2748 14.7518 33.621 15.4894 33.8518 16.2837C33.9672 17.078 34.0249 17.8723 33.9672 18.7801H25.6C25.6 19.6879 25.9462 20.539 26.4079 20.9929ZM30.0433 15.0355C29.6393 14.6383 29.0046 14.4113 28.2544 14.4113C27.7351 14.4113 27.3311 14.5248 26.9849 14.695C26.6387 14.8652 26.4079 15.0922 26.177 15.3191C25.9462 15.5461 25.8308 15.8298 25.7731 16.1135C25.7154 16.3972 25.6577 16.6241 25.6577 16.8511H30.8511C30.7357 16 30.4472 15.4326 30.0433 15.0355ZM38.4682 8V13.9007H38.5259C38.9298 13.2199 39.4492 12.766 40.0839 12.4823C40.7187 12.1986 41.2957 12.0284 41.9305 12.0284C42.7961 12.0284 43.4885 12.1418 44.0079 12.3688C44.5272 12.5957 44.9888 12.9362 45.2774 13.3333C45.5659 13.7305 45.7967 14.2411 45.9121 14.8085C46.0275 15.3759 46.0852 16 46.0852 16.7376V23.7163H42.9115V17.305C42.9115 16.3404 42.7384 15.6596 42.4498 15.2057C42.1613 14.7518 41.642 14.5248 40.8918 14.5248C40.0262 14.5248 39.3915 14.8085 39.0452 15.2624C38.6413 15.773 38.4682 16.6241 38.4682 17.7589V23.7163H35.2944V8H38.4682ZM48.3934 14.0142C48.7397 13.5035 49.1436 13.1631 49.6629 12.8227C50.1823 12.539 50.7593 12.3121 51.3941 12.1986C52.0288 12.0851 52.6636 12.0284 53.2984 12.0284C53.8754 12.0284 54.4525 12.0851 55.0872 12.1418C55.6643 12.1986 56.2413 12.3688 56.7029 12.5957C57.2223 12.8227 57.5685 13.1631 57.9147 13.5603C58.2033 13.9574 58.3764 14.5248 58.3764 15.2057V21.1631C58.3764 21.6738 58.4341 22.1844 58.4918 22.6383C58.5495 23.0922 58.7226 23.4894 58.8957 23.7163H55.6643C55.5488 23.6028 55.4911 23.3759 55.4334 23.2057C55.3757 23.0355 55.3757 22.8085 55.3757 22.6383C54.8564 23.1489 54.2793 23.4894 53.5869 23.7163C52.8944 23.9433 52.202 24 51.5095 24C50.9325 24 50.4708 23.9433 49.9515 23.773C49.4898 23.6596 49.0859 23.4326 48.682 23.1489C48.3357 22.8652 48.0472 22.5248 47.8164 22.0709C47.6433 21.617 47.5279 21.1631 47.5279 20.539C47.5279 19.9149 47.6433 19.3475 47.8741 18.9504C48.1049 18.5532 48.3934 18.2128 48.7397 17.9291C49.0859 17.7021 49.5475 17.4752 50.0092 17.3617C50.4708 17.2482 50.9325 17.1348 51.4518 17.078L52.8367 16.9078C53.2984 16.8511 53.7023 16.7943 54.0485 16.7376C54.3948 16.6241 54.6833 16.5106 54.9141 16.3404C55.1449 16.1702 55.2026 15.9433 55.2026 15.6028C55.2026 15.2624 55.1449 14.9787 55.0295 14.8085C54.9141 14.6383 54.741 14.4681 54.5679 14.3546C54.3947 14.2411 54.1639 14.1844 53.9331 14.1277C53.7023 14.0709 53.4138 14.0709 53.1252 14.0709C52.4905 14.0709 52.0288 14.1844 51.6826 14.4681C51.3364 14.7518 51.1056 15.2057 51.0479 15.773H47.8741C47.8741 15.0922 48.1049 14.4681 48.3934 14.0142ZM54.6833 18.4397C54.5102 18.4965 54.2793 18.5532 54.0485 18.6099C53.8177 18.6667 53.5869 18.6667 53.2984 18.7234C53.0675 18.7801 52.779 18.7801 52.5482 18.8369L51.8557 19.0071C51.6249 19.0638 51.3941 19.1773 51.2787 19.2908C51.1056 19.4043 50.9902 19.5745 50.8748 19.7447C50.7016 19.9716 50.7016 20.1986 50.7016 20.4823C50.7016 20.766 50.7593 20.9929 50.8748 21.1631C50.9902 21.3333 51.1056 21.5035 51.2787 21.617C51.4518 21.7305 51.6826 21.7872 51.9134 21.844C52.1443 21.9007 52.3751 21.9007 52.6636 21.9007C53.2984 21.9007 53.76 21.7872 54.1062 21.617C54.4525 21.3901 54.6833 21.1631 54.8564 20.8794C55.0295 20.5957 55.1449 20.3121 55.1449 20.0284C55.2026 19.7447 55.2026 19.5177 55.2026 19.3475V18.156C55.0295 18.2695 54.8564 18.383 54.6833 18.4397ZM63.1659 12.3121V13.9007H63.2236C63.6275 13.2199 64.1469 12.766 64.7816 12.4823C65.4164 12.1986 66.1088 12.0284 66.7436 12.0284C67.6092 12.0284 68.3016 12.1418 68.821 12.3688C69.398 12.5957 69.802 12.9362 70.0905 13.3333C70.379 13.7305 70.6098 14.2411 70.7829 14.8085C70.8984 15.3759 70.9561 16 70.9561 16.7376V23.7163H67.7823V17.305C67.7823 16.3404 67.6092 15.6596 67.3207 15.2057C67.0321 14.7518 66.5128 14.4681 65.7049 14.4681C64.8393 14.4681 64.2046 14.8085 63.8007 15.3191C63.3967 15.8298 63.2236 16.6809 63.2236 17.8156V23.773H60.0498V12.3121H63.1659ZM78.0538 14.3546C77.5344 14.3546 77.1305 14.4681 76.7843 14.695C76.438 14.922 76.1495 15.2057 75.9187 15.6028C75.6879 15.9433 75.5725 16.3404 75.457 16.7943C75.3416 17.2482 75.3416 17.6454 75.3416 18.0993C75.3416 18.4965 75.3993 18.9504 75.457 19.3475C75.5725 19.8014 75.6879 20.1418 75.9187 20.4823C76.1495 20.8227 76.3803 21.1064 76.7266 21.3333C77.0728 21.5603 77.4767 21.6738 77.9961 21.6738C78.7462 21.6738 79.3233 21.4468 79.7849 21.0496C80.1889 20.6525 80.4774 20.0851 80.5351 19.3475H83.5934C83.3626 20.8794 82.7856 22.0142 81.8046 22.8085C80.8236 23.6028 79.5541 24 77.9961 24C77.1305 24 76.3226 23.8298 75.6302 23.5461C74.88 23.2624 74.3029 22.8652 73.7836 22.3546C73.2643 21.844 72.8603 21.2199 72.5718 20.539C72.2833 19.8014 72.1679 19.0638 72.1679 18.2128C72.1679 17.305 72.2833 16.5106 72.5718 15.773C72.8603 15.0355 73.2066 14.3546 73.7259 13.7872C74.2452 13.2199 74.88 12.8227 75.5725 12.4823C76.3226 12.1986 77.1305 12.0284 78.0538 12.0284C78.7462 12.0284 79.381 12.1418 80.0157 12.3121C80.6505 12.4823 81.2275 12.766 81.6892 13.1064C82.2085 13.4468 82.6125 13.9007 82.901 14.4681C83.1895 14.9787 83.3626 15.6596 83.4203 16.3972H80.3043C80.1889 15.0355 79.4387 14.3546 78.0538 14.3546ZM24.9652 9.07801H31.4282V10.6099H24.9652V9.07801ZM88.3829 20.9929C88.8446 21.4468 89.5947 21.6738 90.4603 21.6738C91.0951 21.6738 91.6721 21.5035 92.1338 21.2199C92.5954 20.8794 92.8839 20.539 92.9993 20.1986H95.7692C95.3075 21.5603 94.6151 22.5248 93.6918 23.1489C92.7685 23.7163 91.6721 24.0567 90.3449 24.0567C89.4216 24.0567 88.6138 23.8865 87.8636 23.6028C87.1134 23.3191 86.5364 22.922 86.017 22.3546C85.4977 21.844 85.0938 21.2199 84.8629 20.4823C84.5744 19.7447 84.459 18.9504 84.459 18.0426C84.459 17.1915 84.5744 16.3972 84.8629 15.6596C85.1515 14.922 85.5554 14.2979 86.0748 13.7305C86.5941 13.2199 87.2288 12.766 87.9213 12.4823C88.6715 12.1986 89.4793 12.0284 90.3449 12.0284C91.3259 12.0284 92.1915 12.1986 92.8839 12.5957C93.6341 12.9929 94.2111 13.4468 94.6728 14.1277C95.1344 14.7518 95.4807 15.4894 95.7115 16.2837C95.9423 17.078 96 17.9291 95.9423 18.8369H87.5751C87.5751 19.6879 87.9213 20.539 88.3829 20.9929ZM92.0761 15.0355C91.6721 14.6383 91.0374 14.4113 90.2872 14.4113C89.7679 14.4113 89.3639 14.5248 89.0177 14.695C88.6715 14.8652 88.3829 15.0922 88.2098 15.3191C88.0367 15.5461 87.8636 15.8298 87.8059 16.1135C87.7482 16.3972 87.6905 16.6241 87.6905 16.8511H92.8839C92.7108 16 92.4223 15.4326 92.0761 15.0355Z" fill="black"/>
</g>
<defs>
<clipPath id="clip0_2003_1531">
<rect width="88" height="16" fill="white" transform="translate(8 8)"/>
</clipPath>
</defs>
</svg>
