<svg width="82" height="32" viewBox="0 0 82 32" fill="none" xmlns="http://www.w3.org/2000/svg">
<g clip-path="url(#clip0_2003_1486)">
<mask id="mask0_2003_1486" style="mask-type:luminance" maskUnits="userSpaceOnUse" x="8" y="8" width="66" height="16">
<path d="M73.4748 8H8.14148V24H73.4748V8Z" fill="white"/>
</mask>
<g mask="url(#mask0_2003_1486)">
<path d="M21.3364 23.7114H30.0797C30.3574 23.7115 30.6302 23.6402 30.8707 23.5047C31.1112 23.3692 31.3109 23.1743 31.4497 22.9396C31.5885 22.705 31.6615 22.4388 31.6614 22.1678C31.6613 21.8969 31.5881 21.6308 31.449 21.3962L25.5773 11.4735C25.4385 11.2389 25.2388 11.0441 24.9984 10.9086C24.7579 10.7731 24.4851 10.7018 24.2075 10.7018C23.9298 10.7018 23.6571 10.7731 23.4166 10.9086C23.1762 11.0441 22.9765 11.2389 22.8378 11.4735L21.3364 14.0124L18.4009 9.04771C18.262 8.81311 18.0623 8.6183 17.8218 8.48286C17.5812 8.34742 17.3084 8.27612 17.0307 8.27612C16.7531 8.27612 16.4802 8.34742 16.2397 8.48286C15.9992 8.6183 15.7995 8.81311 15.6606 9.04771L8.35385 21.3962C8.21485 21.6308 8.1416 21.8969 8.14148 22.1678C8.14136 22.4388 8.21437 22.705 8.35316 22.9396C8.49196 23.1743 8.69165 23.3692 8.93214 23.5047C9.17264 23.6402 9.44546 23.7115 9.72317 23.7114H15.2115C17.3861 23.7114 18.9897 22.7795 20.0932 20.9614L22.7721 16.4349L24.2071 14.0124L28.5136 21.289H22.7721L21.3364 23.7114ZM15.122 21.2865L11.2919 21.2856L17.0333 11.5841L19.8981 16.4349L17.9799 19.677C17.2472 20.8567 16.4147 21.2865 15.122 21.2865Z" fill="#00DC82"/>
<path d="M38.1486 23.566V17.7887C38.1486 16.1354 37.9774 14.4822 37.9774 14.4822C37.9774 14.4822 38.6278 15.9901 39.4493 17.4072L42.9577 23.566H45.7131V10.8486H43.1288V16.6259C43.1288 18.2792 43.3 19.9506 43.3 19.9506C43.3 19.9506 42.6496 18.4245 41.8453 17.0075L38.3197 10.8486H35.5814V23.566H38.1486Z" fill="black"/>
<path d="M53.8549 14.4097V19.424C53.8549 20.5867 53.119 21.4588 52.075 21.4588C51.0995 21.4588 50.4149 20.6594 50.4149 19.5511V14.4097H48.036V20.1143C48.036 22.2036 49.3025 23.7116 51.2364 23.7116C52.4173 23.7116 53.3757 23.1665 53.8549 22.2945V23.5662H56.2509V14.4097H53.8549Z" fill="black"/>
<path d="M63.2184 18.8063L66.1111 14.4097H63.4923L61.918 16.826L60.3432 14.4097H57.7419L60.6345 18.7881L57.5195 23.5662H60.0698L61.9349 20.7502L63.7831 23.5662H66.3164L63.2184 18.8063Z" fill="black"/>
<path d="M68.7853 14.4096H67.125V16.5171H68.7853V20.2415C68.7853 22.3671 70.0688 23.5662 72.0542 23.5662H73.4745V21.4405H72.3793C71.6093 21.4405 71.1639 21.0227 71.1639 20.1325V16.5171H73.4745V14.4096H71.1639V11.7026H68.7853V14.4096Z" fill="black"/>
</g>
</g>
<defs>
<clipPath id="clip0_2003_1486">
<rect width="65.3333" height="16" fill="white" transform="translate(8 8)"/>
</clipPath>
</defs>
</svg>
