<svg width="87" height="32" viewBox="0 0 87 32" fill="none" xmlns="http://www.w3.org/2000/svg">
<g clip-path="url(#clip0_2003_1514)">
<path d="M47.1587 8.23933H51.4907L49.3107 23.7873H44.9787L47.1587 8.23933ZM41.6967 8.23933L38.7733 17.196L37.498 8.23933H34.468L30.64 17.1693L30.162 8.24H25.9627L27.4247 23.788H30.9067L35.212 13.9547L36.7267 23.788H40.1553L45.8167 8.23933H41.6967ZM78.0687 17.276H67.7827C67.836 19.296 69.0453 20.6247 70.826 20.6247C72.1687 20.6247 73.2313 19.9067 74.0553 18.538L77.5273 20.1167C76.334 22.468 73.8193 24 70.72 24C66.494 24 63.69 21.156 63.69 16.5847C63.69 11.5613 66.9853 8 71.6367 8C75.73 8 78.308 10.764 78.308 15.07C78.308 15.7873 78.228 16.5047 78.0687 17.276ZM74.2153 14.2987C74.2153 12.492 73.2047 11.3487 71.584 11.3487C69.9093 11.3487 68.5273 12.5447 68.1547 14.2987H74.2153ZM12.4213 12.9247L8 18.0927H15.896L16.7827 15.656H13.4L15.4667 13.2653L15.4733 13.202L14.1293 10.888H20.1773L15.4893 23.788H18.6973L24.3587 8.23867H9.73333L12.422 12.924L12.4213 12.9247ZM58.5333 11.3487C60.0613 11.3487 61.4 12.1707 62.57 13.5793L63.184 9.196C62.0953 8.45867 60.62 8 58.6667 8C54.7867 8 52.6067 10.2727 52.6067 13.156C52.6067 15.156 53.7233 16.3787 55.5573 17.1693L56.434 17.568C58.0687 18.266 58.5073 18.6113 58.5073 19.3487C58.5073 20.1127 57.77 20.598 56.6473 20.598C54.7927 20.6047 53.2913 19.6547 52.162 18.0333L51.5353 22.4993C52.8227 23.48 54.472 24 56.6467 24C60.3347 24 62.6 21.8733 62.6 18.9233C62.6 16.9167 61.71 15.628 59.464 14.618L58.5073 14.166C57.178 13.5747 56.7267 13.2493 56.7267 12.598C56.7267 11.894 57.3447 11.3487 58.5333 11.3487Z" fill="#163300"/>
</g>
<defs>
<clipPath id="clip0_2003_1514">
<rect width="70.6667" height="16" fill="white" transform="translate(8 8)"/>
</clipPath>
</defs>
</svg>
