<svg width="84" height="32" viewBox="0 0 84 32" fill="none" xmlns="http://www.w3.org/2000/svg">
<g clip-path="url(#clip0_2003_1527)">
<path d="M12.2124 8.58054L8 20.5151H9.82884L11.05 17.0031H15.6289L16.8522 20.5158H18.7397L14.528 8.58054H12.2124ZM11.6248 15.3493L13.3448 10.4002L15.0563 15.3493H11.6248ZM26.5848 12.7914C26.8618 13.3151 26.9978 13.9027 26.9792 14.4969V20.4984H25.1668V14.8038C25.1668 14.1638 25.0036 13.7042 24.68 13.4147C24.322 13.1166 23.8676 12.9644 23.4052 12.9878C23.0917 12.9878 22.7811 13.0482 22.4904 13.1667C22.1927 13.2884 21.9382 13.4989 21.7603 13.7704C21.5557 14.0949 21.4561 14.4763 21.4755 14.8613V20.5216H19.6459V11.5711H21.4669V12.6365C21.5694 12.4799 21.6906 12.3368 21.8276 12.2104C22.1211 11.9434 22.4625 11.7376 22.8347 11.6053C23.2192 11.463 23.6253 11.3909 24.0344 11.3922C24.551 11.3845 25.0614 11.5075 25.5197 11.75C25.9656 11.99 26.3357 12.3551 26.5848 12.8009V12.7922V12.7914ZM34.17 10.5754C33.8105 10.8057 33.5503 11.1659 33.442 11.5834C33.0238 11.4477 32.5869 11.3806 32.1479 11.3849C31.5301 11.3727 30.9181 11.5072 30.3605 11.7776C29.8552 12.0254 29.4259 12.4083 29.1187 12.8853C28.8016 13.3946 28.6412 13.9883 28.6577 14.5907C28.6412 15.1798 28.7958 15.7616 29.1022 16.2613C29.2575 16.5071 29.4494 16.7267 29.6705 16.9136C29.6433 16.9267 29.6161 16.9369 29.5889 16.9522C29.2908 17.1059 29.0364 17.3348 28.8502 17.6169C28.6462 17.9326 28.5437 18.3049 28.5568 18.6824C28.5682 18.9565 28.6398 19.2249 28.7665 19.4671C28.9075 19.7434 29.1265 19.9704 29.3964 20.1187C29.1143 20.1818 28.8487 20.3055 28.6176 20.4816C28.4263 20.6258 28.2728 20.8154 28.1704 21.0339C28.0681 21.2523 28.0201 21.493 28.0307 21.7347C28.0307 22.4605 28.38 23.0176 29.0793 23.4053C29.7786 23.7936 30.7113 23.9914 31.8795 24.0002C33.2094 24.0002 34.2695 23.7471 35.0597 23.2416C35.433 23.0186 35.74 22.6973 35.9483 22.3116C36.1566 21.9258 36.2584 21.49 36.2429 21.0504C36.2573 20.7489 36.2069 20.4479 36.0953 20.1682C35.9837 19.8885 35.8135 19.6369 35.5966 19.4307C35.1192 19.016 34.5038 18.8026 33.8765 18.8344H33.3146C33.0519 18.8344 32.7728 18.8467 32.475 18.8598L31.6697 18.8853H31.1665C30.8967 18.8984 30.629 18.8336 30.3942 18.6976C30.3032 18.6407 30.2288 18.5602 30.1787 18.4643C30.1286 18.3684 30.1047 18.2606 30.1093 18.1522C30.108 18.0421 30.1307 17.9331 30.1756 17.8329C30.2205 17.7327 30.2866 17.6438 30.3691 17.5725C30.4243 17.5216 30.4837 17.4751 30.5452 17.4344C31.0217 17.6207 31.5286 17.7138 32.0391 17.7085C32.6504 17.7194 33.2559 17.5878 33.8092 17.3253C34.3165 17.0802 34.7465 16.6964 35.0511 16.2169C35.3649 15.7061 35.5253 15.1134 35.5128 14.5114C35.5282 13.9235 35.3766 13.3436 35.0762 12.8409C34.918 12.5891 34.7219 12.364 34.4949 12.174C34.5679 12.0951 34.6578 12.0344 34.7576 11.9965C35.0934 11.8671 35.6073 11.8729 36.3016 12.022V10.3173C35.4341 10.1369 34.724 10.2256 34.17 10.5834V10.5754ZM33.6081 20.4554C33.8772 20.4373 34.1442 20.5224 34.3547 20.6947C34.4417 20.7752 34.5102 20.8742 34.5551 20.9848C34.6 21.0953 34.6203 21.2146 34.6145 21.334C34.614 21.557 34.5485 21.7748 34.4262 21.9599C34.3039 22.145 34.1303 22.2891 33.9273 22.374C33.4678 22.6125 32.8307 22.7318 32.014 22.7318C31.2295 22.7318 30.6419 22.6169 30.2517 22.3914C30.0801 22.3121 29.934 22.1852 29.8302 22.0253C29.7263 21.8654 29.669 21.679 29.6648 21.4874C29.6734 21.2329 29.7722 20.99 29.9411 20.8038C30.1258 20.59 30.4572 20.4707 30.9396 20.4707L33.6081 20.4562V20.4554ZM33.3733 15.8351C33.2035 15.9981 33.0029 16.1245 32.7837 16.2066C32.5644 16.2887 32.3311 16.3249 32.0978 16.3129C31.8611 16.3263 31.6242 16.29 31.4019 16.2063C31.1796 16.1226 30.9767 15.9932 30.8058 15.8264C30.6472 15.656 30.5239 15.4551 30.4431 15.2355C30.3623 15.0159 30.3257 14.782 30.3355 14.5478C30.3221 14.3132 30.3571 14.0783 30.438 13.8582C30.519 13.638 30.6442 13.4375 30.8058 13.2693C30.9792 13.107 31.1829 12.9819 31.4049 12.9013C31.6268 12.8207 31.8625 12.7863 32.0978 12.8002C32.3312 12.7876 32.5647 12.8235 32.784 12.9056C33.0033 12.9878 33.2038 13.1145 33.3733 13.278C33.5329 13.4475 33.6569 13.6483 33.7376 13.8682C33.8184 14.088 33.8542 14.3222 33.8429 14.5565C33.8549 14.7923 33.8194 15.028 33.7387 15.2494C33.658 15.4707 33.5336 15.673 33.3733 15.8438V15.8351ZM43.1059 11.8547C42.5051 11.5372 41.8361 11.3761 41.159 11.3856C40.4267 11.3754 39.7043 11.5575 39.0617 11.9144C38.414 12.2809 37.886 12.832 37.5428 13.4998C37.1419 14.3161 36.9515 15.2225 36.9895 16.134C36.9706 16.9654 37.137 17.7903 37.4762 18.5471C37.7788 19.2098 38.2733 19.7629 38.8935 20.1325C39.5785 20.518 40.3523 20.7093 41.1339 20.6867C42.0199 20.7121 42.8915 20.455 43.6263 19.9514C44.3239 19.4484 44.8093 18.6966 44.9856 17.846H43.1231C43.0214 18.2278 42.7859 18.5587 42.4603 18.7747C42.0825 19.0105 41.6441 19.1262 41.2012 19.1071C40.4167 19.1071 39.8183 18.8314 39.406 18.2802C39.0395 17.7581 38.8304 17.139 38.804 16.4984H45.0106C45.0214 16.318 45.0278 16.1238 45.0278 15.9194C45.0278 14.862 44.851 14.0009 44.4988 13.3362C44.1918 12.7134 43.7061 12.1999 43.1059 11.8634V11.8547ZM39.4232 13.7122C39.6256 13.4477 39.8874 13.2363 40.1866 13.0955C40.4858 12.9547 40.8138 12.8886 41.1432 12.9027C41.5377 12.8968 41.9264 12.9998 42.2677 13.2009C42.6177 13.4176 42.8883 13.7434 43.04 14.1304C43.1617 14.4402 43.2276 14.7689 43.2369 15.102H38.8777C38.9422 14.6024 39.1297 14.1274 39.4232 13.7209V13.7122ZM46.6133 8.57181H48.4428V20.5064H46.6133V8.57181ZM52.3339 18.8358H57.7395V20.5071H50.5036V8.57181H52.3331L52.3339 18.8358ZM59.0143 11.5638H60.8417V20.5165H59.0143V11.5638ZM60.6928 8.32454C60.7931 8.42773 60.8719 8.55026 60.9248 8.68491C60.9776 8.81956 61.0034 8.9636 61.0006 9.10854C61.0061 9.32934 60.9465 9.54677 60.8296 9.73297C60.7126 9.91916 60.5437 10.0656 60.3443 10.1536C60.2128 10.2091 60.0714 10.2363 59.9291 10.2336C59.7837 10.2378 59.6391 10.2111 59.5044 10.1554C59.3697 10.0997 59.2479 10.0161 59.1467 9.90999C59.0454 9.80404 58.9659 9.67854 58.9131 9.54089C58.8602 9.40325 58.835 9.25624 58.839 9.10854C58.836 8.96358 58.8618 8.81951 58.9146 8.68484C58.9675 8.55017 59.0464 8.42765 59.1467 8.32454C59.2479 8.21842 59.3697 8.13486 59.5044 8.07914C59.6391 8.02342 59.7837 7.99678 59.9291 8.0009C60.0716 7.99786 60.2131 8.02508 60.3446 8.08081C60.4761 8.13654 60.5947 8.21955 60.6928 8.32454ZM63.9883 14.0365C63.9804 14.1621 64.0003 14.2878 64.0468 14.4044C64.0933 14.521 64.1651 14.6255 64.2568 14.71C64.4765 14.8816 64.7313 15.0009 65.0033 15.0591C65.3219 15.1391 65.6883 15.2104 66.1028 15.2722C66.4814 15.3274 66.8565 15.4045 67.2266 15.5027C67.5859 15.5951 67.9309 15.7384 68.2502 15.9289C68.5601 16.1114 68.8178 16.3725 68.9974 16.6874C69.1957 17.0642 69.2909 17.4882 69.2737 17.9151C69.2737 18.8024 68.9581 19.4838 68.326 19.9616C67.694 20.4387 66.8551 20.6773 65.8086 20.6773C65.1054 20.7 64.4061 20.5634 63.7614 20.2773C63.2538 20.0457 62.8185 19.6769 62.5031 19.2111C62.2252 18.7901 62.0498 18.308 61.9913 17.8045H63.77C63.8502 18.2118 64.0735 18.5754 64.3992 18.8278C64.7349 19.0896 65.2102 19.2198 65.8258 19.2198C66.2646 19.2442 66.7012 19.1407 67.0841 18.9216C67.2288 18.834 67.3478 18.7087 67.429 18.5588C67.5102 18.4088 67.5505 18.2396 67.5458 18.0685C67.559 17.8799 67.5101 17.6922 67.4068 17.5349C67.3036 17.3776 67.1518 17.2596 66.9753 17.1994C66.4699 17.0214 65.9466 16.9011 65.4149 16.8409C65.0418 16.7917 64.6719 16.7205 64.3069 16.6278C63.9511 16.5415 63.6093 16.4039 63.2919 16.2191C62.988 16.0391 62.7339 15.7839 62.5532 15.4773C62.3539 15.104 62.2581 14.6827 62.2762 14.2584C62.2579 13.6993 62.4104 13.1483 62.7128 12.6809C63.0153 12.2457 63.4348 11.9084 63.9211 11.7093C64.4748 11.4803 65.0684 11.3672 65.6662 11.3769C66.2007 11.3663 66.7325 11.4558 67.2352 11.6409C67.656 11.7973 68.044 12.0344 68.3761 12.3398C68.6682 12.6074 68.9072 12.9289 69.0812 13.286C69.2372 13.5987 69.326 13.942 69.341 14.2918H67.5623C67.4893 13.8915 67.2852 13.528 66.9832 13.2605C66.6768 12.9769 66.2159 12.8344 65.5989 12.8344C65.1848 12.8127 64.7743 12.923 64.425 13.15C64.2842 13.2476 64.1708 13.3805 64.0956 13.5359C64.0205 13.6912 63.9862 13.8637 63.9962 14.0365H63.9883ZM73.3351 13.1667V17.3442C73.3137 17.758 73.4103 18.1689 73.6121 18.5296C73.7968 18.8191 74.1704 18.9551 74.7281 18.9551C75.0105 18.9523 75.2918 18.9181 75.567 18.8533V20.4729C75.1511 20.5442 74.7302 20.5842 74.3086 20.5922C73.348 20.5922 72.6401 20.334 72.1856 19.8162C71.731 19.2998 71.5048 18.5405 71.5056 17.5398V13.1587H69.8449V11.5565H71.5056V9.42563H73.3351V11.5565H75.5856V13.1587L73.3351 13.1667Z" fill="#002B31"/>
</g>
<defs>
<clipPath id="clip0_2003_1527">
<rect width="68" height="16" fill="white" transform="translate(8 8)"/>
</clipPath>
</defs>
</svg>
