<svg width="100" height="16" viewBox="0 0 100 16" fill="none" xmlns="http://www.w3.org/2000/svg">
<g clip-path="url(#clip0_2003_1805)">
<path d="M8.00001 11.8334L3.88535 13.9967L4.67135 9.41472L1.33801 6.17005L5.93801 5.50338L7.99535 1.33472L10.0527 5.50338L14.6527 6.17005L11.3193 9.41472L12.1053 13.9967L8.00001 11.8334Z" fill="#E3AD54" stroke="#E3AD54" stroke-width="1.75" stroke-linecap="round" stroke-linejoin="round"/>
</g>
<g clip-path="url(#clip1_2003_1805)">
<path d="M36 11.8334L31.8853 13.9967L32.6713 9.41472L29.338 6.17005L33.938 5.50338L35.9953 1.33472L38.0527 5.50338L42.6527 6.17005L39.3193 9.41472L40.1053 13.9967L36 11.8334Z" fill="#E3AD54" stroke="#E3AD54" stroke-width="1.75" stroke-linecap="round" stroke-linejoin="round"/>
</g>
<g clip-path="url(#clip2_2003_1805)">
<path d="M64 11.8334L59.8853 13.9967L60.6713 9.41472L57.338 6.17005L61.938 5.50338L63.9953 1.33472L66.0527 5.50338L70.6527 6.17005L67.3193 9.41472L68.1053 13.9967L64 11.8334Z" fill="#E3AD54" stroke="#E3AD54" stroke-width="1.75" stroke-linecap="round" stroke-linejoin="round"/>
</g>
<g clip-path="url(#clip3_2003_1805)">
<path d="M92 11.8334L87.8853 13.9967L88.6713 9.41472L85.338 6.17005L89.938 5.50338L91.9953 1.33472L94.0527 5.50338L98.6527 6.17005L95.3193 9.41472L96.1053 13.9967L92 11.8334Z" fill="#E3AD54" stroke="#E3AD54" stroke-width="1.75" stroke-linecap="round" stroke-linejoin="round"/>
</g>
<defs>
<clipPath id="clip0_2003_1805">
<rect width="16" height="16" fill="white"/>
</clipPath>
<clipPath id="clip1_2003_1805">
<rect width="16" height="16" fill="white" transform="translate(28)"/>
</clipPath>
<clipPath id="clip2_2003_1805">
<rect width="16" height="16" fill="white" transform="translate(56)"/>
</clipPath>
<clipPath id="clip3_2003_1805">
<rect width="16" height="16" fill="white" transform="translate(84)"/>
</clipPath>
</defs>
</svg>
