<svg width="17" height="17" viewBox="0 0 17 17" fill="none" xmlns="http://www.w3.org/2000/svg">
<path d="M1 13.5V8.5C1 6.51088 1.79018 4.60322 3.1967 3.1967C4.60322 1.79018 6.51088 1 8.5 1C10.4891 1 12.3968 1.79018 13.8033 3.1967C15.2098 4.60322 16 6.51088 16 8.5V13.5M16 14.3333C16 14.7754 15.8244 15.1993 15.5118 15.5118C15.1993 15.8244 14.7754 16 14.3333 16H13.5C13.058 16 12.634 15.8244 12.3215 15.5118C12.0089 15.1993 11.8333 14.7754 11.8333 14.3333V11.8333C11.8333 11.3913 12.0089 10.9674 12.3215 10.6548C12.634 10.3423 13.058 10.1667 13.5 10.1667H16V14.3333ZM1 14.3333C1 14.7754 1.17559 15.1993 1.48816 15.5118C1.80072 15.8244 2.22464 16 2.66667 16H3.5C3.94203 16 4.36595 15.8244 4.67851 15.5118C4.99107 15.1993 5.16667 14.7754 5.16667 14.3333V11.8333C5.16667 11.3913 4.99107 10.9674 4.67851 10.6548C4.36595 10.3423 3.94203 10.1667 3.5 10.1667H1V14.3333Z" stroke="#5A6475" stroke-width="2" stroke-linecap="round" stroke-linejoin="round"/>
</svg>
