<svg width="80" height="32" viewBox="0 0 80 32" fill="none" xmlns="http://www.w3.org/2000/svg">
<path fill-rule="evenodd" clip-rule="evenodd" d="M71.9008 20.6319C69.2264 25.2725 64.9908 23.926 63.7187 22.8717C63.1774 23.2476 62.228 24.0716 60.9622 23.9765C58.2664 23.7739 57.301 19.8312 57.301 19.8312C57.3203 19.847 56.4979 20.1217 56.0535 20.1167C56.0478 21.273 55.0712 24.035 52.4355 23.9997C49.478 23.9602 48.8767 19.4507 48.8767 19.4507C48.8767 19.4507 48.5824 19.869 47.4633 20.2856C47.5197 19.3973 47.4785 23.8644 43.9337 23.9301C41.1314 23.9821 40.3749 19.3812 40.3749 19.3812C40.3749 19.3812 39.8888 19.898 38.9466 20.0773C39.0065 19.1745 38.9091 23.9453 35.364 23.9301C32.9682 23.9199 32.1495 21.096 32.2131 20.704C32.2944 20.2045 31.4035 24.0004 29.0763 23.9412C28.116 23.9124 27.4 23.2007 26.9507 22.252C26.3493 22.9563 25.4761 23.9412 24.4966 23.9412C22.7383 23.9412 21.9631 22.4361 22.0944 18.1373C22.1056 17.6274 22.0696 17.4269 21.5744 17.3506C21.2771 17.2998 20.9727 17.2037 20.6506 17.1531C20.5474 17.5056 19.6717 23.8265 16.6608 23.9465C15.6507 23.9867 15.0984 23.0912 14.6448 22.4266C13.9494 23.3679 13.0316 23.9765 11.724 23.9765C9.50909 23.9765 8 22.144 8 19.8834C8 17.6228 9.50909 15.7905 11.724 15.7905C12.1156 15.7905 12.2256 15.848 12.5833 15.9548C11.8476 9.09888 13.5852 8.02739 15.1052 8.02739C16.5645 8.02739 19.0575 11.4938 15.5496 20.2863C16.3284 22.9088 18.0074 22.7605 18.8142 17.3618C18.9784 16.2644 18.5394 14.7835 19.2223 14.5768C20.4707 14.1991 20.6032 15.3324 21.1885 15.5212C21.8075 15.7208 22.1688 15.7013 22.7629 15.8283C23.7783 16.0312 24.1745 16.5894 24.0508 17.8327C23.9022 19.4058 23.6424 21.6955 24.4347 21.9745C25.0061 22.1772 26.0493 20.9645 26.2323 20.301C26.4153 19.6375 26.4536 19.4104 26.4698 18.9237C26.4946 17.8835 26.5256 17.1211 26.6989 16.3344C26.7731 16.03 26.8577 15.8285 27.1942 15.8147C27.4711 15.8075 27.9774 15.7221 28.2003 15.8997C28.4974 16.1282 28.4603 16.36 28.4262 16.9701C28.0807 25.669 30.74 21.3264 31.533 17.8493C31.2506 13.9176 31.4445 8.09939 33.8519 8.00181C35.1039 7.95106 35.6574 8.97759 35.7183 9.7438C35.8905 11.9079 34.9259 15.4926 33.6573 17.9033C32.9322 22.8222 36.8274 23.7948 37.4503 19.8685C36.4312 19.3726 35.3298 17.3654 36.226 16.3872C36.7289 15.8383 38.8223 16.6269 38.8566 18.347C39.8835 18.0659 40.0205 17.4725 40.0348 17.5709C39.7525 13.6391 40.0143 8.09944 42.4219 8.00186C43.6738 7.95111 44.2272 8.97764 44.2881 9.74385C44.4603 11.9079 43.4957 15.4926 42.2272 17.9034C41.5021 22.8222 45.3973 23.7949 46.02 19.8686C45.2655 19.7196 43.6728 17.5847 44.5918 16.3873C45.0829 15.7474 47.1686 17.0781 47.4021 18.4039C48.3885 18.1182 48.5225 17.5437 48.5367 17.6404C48.2543 13.7088 48.5161 8.16912 50.9237 8.07154C52.1756 8.02079 52.729 9.04732 52.7899 9.81353C52.9621 11.9776 51.9975 15.5624 50.7288 17.9731C50.0039 22.892 53.899 23.8644 54.5219 19.9382C53.4851 19.7615 52.0115 17.5073 53.1975 16.3541C53.6713 15.8933 55.4819 17.0894 55.9058 18.4539C56.4947 18.4307 56.8612 18.2229 56.9398 18.2019C55.9997 13.5863 56.6995 8.04816 59.2894 8.00193C60.6893 7.97697 62.0578 8.77643 61.4571 13.1676C60.8837 17.3573 58.8227 19.1155 58.8275 19.1424C58.9474 19.6444 60.005 23.845 62.6682 21.6286C62.5304 21.3091 62.3923 20.9827 62.3152 20.5873C61.8738 18.284 62.7408 15.6825 65.0974 15.262C66.4477 15.0211 67.7196 15.6939 67.9207 17.2106C68.2515 19.6925 66.0618 21.4898 65.2291 21.8797C64.8562 21.6629 68.6099 24.1267 70.8376 19.1891C70.9667 18.9072 71.1224 18.9311 71.3242 19.0764C71.4667 19.1791 72.2783 19.9659 71.9008 20.6319ZM13.3352 19.2736C13.2218 18.9268 12.9892 18.1626 12.907 17.8315C12.4539 17.4283 12.1306 17.3628 11.5491 17.3628C10.2568 17.3628 9.49624 18.5856 9.49624 19.9041C9.49624 21.2226 10.3249 22.4455 11.6171 22.4455C12.737 22.4455 13.5893 21.6662 13.8494 20.5631C13.6674 20.133 13.4868 19.7378 13.3352 19.2736ZM15.0735 9.8422C14.1655 9.8422 13.8575 12.059 13.9173 13.9502C13.9701 15.6222 14.4266 17.0942 14.6635 17.7538C14.7236 17.8364 14.7124 17.7826 14.7661 17.8703C16.3427 14.335 15.6888 9.8422 15.0735 9.8422ZM33.9816 9.91184C32.808 9.77409 32.8156 14.7774 32.9613 15.8997C33.5708 14.9018 34.6296 10.1805 33.9816 9.91184ZM42.5513 9.91184C41.3778 9.77409 41.3853 14.7774 41.5311 15.8997C42.1405 14.9018 43.1994 10.1805 42.5513 9.91184ZM51.0532 9.98145C49.8796 9.8437 49.8872 14.847 50.0329 15.9694C50.6424 14.9714 51.7012 10.2501 51.0532 9.98145ZM59.419 9.61895C57.5905 9.99473 58.0163 16.234 58.294 17.3283C60.4478 14.3008 60.4921 9.50523 59.419 9.61895ZM66.2716 17.4159C66.1786 17.0181 65.7138 16.8055 65.3929 16.8579C64.4749 16.9862 63.5844 18.1564 63.9291 19.938C64.0058 20.3348 64.1978 20.7 64.1947 20.6879C66.2494 19.2771 66.424 18.1655 66.2716 17.4159ZM27.5541 14.4376C27.2917 14.4376 27.0352 14.358 26.817 14.2089C26.5988 14.0597 26.4287 13.8477 26.3283 13.5996C26.2278 13.3515 26.2015 13.0785 26.2527 12.8151C26.3038 12.5517 26.4302 12.3097 26.6157 12.1198C26.8013 11.9299 27.0376 11.8006 27.295 11.7482C27.5523 11.6958 27.8191 11.7227 28.0616 11.8255C28.304 11.9282 28.5112 12.1023 28.6569 12.3256C28.8027 12.5489 28.8805 12.8114 28.8805 13.0799C28.8805 13.2582 28.8462 13.4347 28.7795 13.5994C28.7129 13.7642 28.6152 13.9138 28.492 14.0399C28.3688 14.166 28.2227 14.266 28.0617 14.3342C27.9008 14.4024 27.7283 14.4376 27.5541 14.4376Z" fill="#0D0C22"/>
</svg>
